<svg width="60" height="22" viewBox="0 0 60 22" fill="none" xmlns="http://www.w3.org/2000/svg">
<path d="M5.33887 3.04688V13H3.29492V3.04688H5.33887ZM8.40137 3.04688V4.65332H0.280273V3.04688H8.40137ZM7.94336 9.37695V9.2334C7.94336 8.69108 8.02083 8.19206 8.17578 7.73633C8.33073 7.27604 8.55632 6.87728 8.85254 6.54004C9.14876 6.2028 9.51335 5.94076 9.94629 5.75391C10.3792 5.5625 10.876 5.4668 11.4365 5.4668C11.9971 5.4668 12.4961 5.5625 12.9336 5.75391C13.3711 5.94076 13.738 6.2028 14.0342 6.54004C14.335 6.87728 14.5628 7.27604 14.7178 7.73633C14.8727 8.19206 14.9502 8.69108 14.9502 9.2334V9.37695C14.9502 9.91471 14.8727 10.4137 14.7178 10.874C14.5628 11.3298 14.335 11.7285 14.0342 12.0703C13.738 12.4076 13.3734 12.6696 12.9404 12.8564C12.5075 13.0433 12.0107 13.1367 11.4502 13.1367C10.8896 13.1367 10.3906 13.0433 9.95312 12.8564C9.52018 12.6696 9.15332 12.4076 8.85254 12.0703C8.55632 11.7285 8.33073 11.3298 8.17578 10.874C8.02083 10.4137 7.94336 9.91471 7.94336 9.37695ZM9.91211 9.2334V9.37695C9.91211 9.68685 9.93945 9.97624 9.99414 10.2451C10.0488 10.514 10.1354 10.751 10.2539 10.9561C10.377 11.1566 10.5365 11.3138 10.7324 11.4277C10.9284 11.5417 11.1676 11.5986 11.4502 11.5986C11.7236 11.5986 11.9583 11.5417 12.1543 11.4277C12.3503 11.3138 12.5075 11.1566 12.626 10.9561C12.7445 10.751 12.8311 10.514 12.8857 10.2451C12.945 9.97624 12.9746 9.68685 12.9746 9.37695V9.2334C12.9746 8.93262 12.945 8.65007 12.8857 8.38574C12.8311 8.11686 12.7422 7.87988 12.6191 7.6748C12.5007 7.46517 12.3434 7.30111 12.1475 7.18262C11.9515 7.06413 11.7145 7.00488 11.4365 7.00488C11.1585 7.00488 10.9215 7.06413 10.7256 7.18262C10.5342 7.30111 10.377 7.46517 10.2539 7.6748C10.1354 7.87988 10.0488 8.11686 9.99414 8.38574C9.93945 8.65007 9.91211 8.93262 9.91211 9.2334ZM43.1758 11.4004V13H38.165V11.4004H43.1758ZM38.8281 3.04688V13H36.7773V3.04688H38.8281ZM46.3066 5.60352V13H44.3311V5.60352H46.3066ZM44.208 3.67578C44.208 3.38867 44.3083 3.15169 44.5088 2.96484C44.7093 2.77799 44.9782 2.68457 45.3154 2.68457C45.6481 2.68457 45.9147 2.77799 46.1152 2.96484C46.3203 3.15169 46.4229 3.38867 46.4229 3.67578C46.4229 3.96289 46.3203 4.19987 46.1152 4.38672C45.9147 4.57357 45.6481 4.66699 45.3154 4.66699C44.9782 4.66699 44.7093 4.57357 44.5088 4.38672C44.3083 4.19987 44.208 3.96289 44.208 3.67578ZM51.9326 10.9561C51.9326 10.8148 51.8916 10.6872 51.8096 10.5732C51.7275 10.4593 51.5749 10.3545 51.3516 10.2588C51.1328 10.1585 50.8161 10.0674 50.4014 9.98535C50.0277 9.90332 49.679 9.80078 49.3555 9.67773C49.0365 9.55013 48.7585 9.39746 48.5215 9.21973C48.2891 9.04199 48.1068 8.83236 47.9746 8.59082C47.8424 8.34473 47.7764 8.06445 47.7764 7.75C47.7764 7.4401 47.8424 7.14844 47.9746 6.875C48.1113 6.60156 48.305 6.36003 48.5557 6.15039C48.8109 5.9362 49.1208 5.76986 49.4854 5.65137C49.8545 5.52832 50.2692 5.4668 50.7295 5.4668C51.3721 5.4668 51.9235 5.56934 52.3838 5.77441C52.8486 5.97949 53.2041 6.26204 53.4502 6.62207C53.7008 6.97754 53.8262 7.38314 53.8262 7.83887H51.8574C51.8574 7.64746 51.8164 7.47656 51.7344 7.32617C51.6569 7.17122 51.5339 7.05046 51.3652 6.96387C51.2012 6.87272 50.987 6.82715 50.7227 6.82715C50.5039 6.82715 50.3148 6.86589 50.1553 6.94336C49.9958 7.01628 49.8727 7.11654 49.7861 7.24414C49.7041 7.36719 49.6631 7.50391 49.6631 7.6543C49.6631 7.76823 49.6859 7.87077 49.7314 7.96191C49.7816 8.0485 49.8613 8.12826 49.9707 8.20117C50.0801 8.27409 50.2214 8.34245 50.3945 8.40625C50.5723 8.46549 50.791 8.52018 51.0508 8.57031C51.584 8.67969 52.0602 8.82324 52.4795 9.00098C52.8988 9.17415 53.2314 9.41113 53.4775 9.71191C53.7236 10.0081 53.8467 10.3978 53.8467 10.8809C53.8467 11.209 53.7738 11.5098 53.6279 11.7832C53.4821 12.0566 53.2725 12.2959 52.999 12.501C52.7256 12.7015 52.3975 12.8587 52.0146 12.9727C51.6364 13.082 51.2103 13.1367 50.7363 13.1367C50.0482 13.1367 49.4648 13.0137 48.9863 12.7676C48.5124 12.5215 48.1523 12.2093 47.9062 11.8311C47.6647 11.4482 47.5439 11.0563 47.5439 10.6553H49.4102C49.4193 10.9242 49.4876 11.1406 49.6152 11.3047C49.7474 11.4688 49.9137 11.5872 50.1143 11.6602C50.3193 11.7331 50.5404 11.7695 50.7773 11.7695C51.0326 11.7695 51.2445 11.7354 51.4131 11.667C51.5817 11.5941 51.7093 11.4984 51.7959 11.3799C51.887 11.2568 51.9326 11.1156 51.9326 10.9561ZM58.748 5.60352V6.99805H54.4414V5.60352H58.748ZM55.5078 3.77832H57.4766V10.7715C57.4766 10.9857 57.5039 11.1497 57.5586 11.2637C57.6178 11.3776 57.7044 11.4574 57.8184 11.5029C57.9323 11.5439 58.0758 11.5645 58.249 11.5645C58.3721 11.5645 58.4814 11.5599 58.5771 11.5508C58.6774 11.5371 58.7617 11.5234 58.8301 11.5098L58.8369 12.959C58.6683 13.0137 58.486 13.057 58.29 13.0889C58.0941 13.1208 57.8776 13.1367 57.6406 13.1367C57.2077 13.1367 56.8294 13.0661 56.5059 12.9248C56.1868 12.779 55.9408 12.5465 55.7676 12.2275C55.5944 11.9085 55.5078 11.4893 55.5078 10.9697V3.77832Z" fill="white"/>
<path d="M19.3389 13H17.1719L17.1855 11.4004H19.3389C19.8766 11.4004 20.3301 11.2796 20.6992 11.0381C21.0684 10.792 21.3464 10.4342 21.5332 9.96484C21.7246 9.49544 21.8203 8.92806 21.8203 8.2627V7.77734C21.8203 7.26693 21.7656 6.81803 21.6562 6.43066C21.5514 6.04329 21.3942 5.71745 21.1846 5.45312C20.9749 5.1888 20.7174 4.99056 20.4121 4.8584C20.1068 4.72168 19.7559 4.65332 19.3594 4.65332H17.1309V3.04688H19.3594C20.0247 3.04688 20.6331 3.16081 21.1846 3.38867C21.7406 3.61198 22.2214 3.93327 22.627 4.35254C23.0326 4.77181 23.3447 5.27311 23.5635 5.85645C23.7868 6.43522 23.8984 7.08008 23.8984 7.79102V8.2627C23.8984 8.96908 23.7868 9.61393 23.5635 10.1973C23.3447 10.7806 23.0326 11.2819 22.627 11.7012C22.2259 12.1159 21.7451 12.4372 21.1846 12.665C20.6286 12.8883 20.0133 13 19.3389 13ZM18.334 3.04688V13H16.2832V3.04688H18.334ZM24.9512 9.37695V9.2334C24.9512 8.69108 25.0286 8.19206 25.1836 7.73633C25.3385 7.27604 25.5641 6.87728 25.8604 6.54004C26.1566 6.2028 26.5212 5.94076 26.9541 5.75391C27.387 5.5625 27.8838 5.4668 28.4443 5.4668C29.0049 5.4668 29.5039 5.5625 29.9414 5.75391C30.3789 5.94076 30.7458 6.2028 31.042 6.54004C31.3428 6.87728 31.5706 7.27604 31.7256 7.73633C31.8805 8.19206 31.958 8.69108 31.958 9.2334V9.37695C31.958 9.91471 31.8805 10.4137 31.7256 10.874C31.5706 11.3298 31.3428 11.7285 31.042 12.0703C30.7458 12.4076 30.3812 12.6696 29.9482 12.8564C29.5153 13.0433 29.0186 13.1367 28.458 13.1367C27.8975 13.1367 27.3984 13.0433 26.9609 12.8564C26.528 12.6696 26.1611 12.4076 25.8604 12.0703C25.5641 11.7285 25.3385 11.3298 25.1836 10.874C25.0286 10.4137 24.9512 9.91471 24.9512 9.37695ZM26.9199 9.2334V9.37695C26.9199 9.68685 26.9473 9.97624 27.002 10.2451C27.0566 10.514 27.1432 10.751 27.2617 10.9561C27.3848 11.1566 27.5443 11.3138 27.7402 11.4277C27.9362 11.5417 28.1755 11.5986 28.458 11.5986C28.7314 11.5986 28.9661 11.5417 29.1621 11.4277C29.3581 11.3138 29.5153 11.1566 29.6338 10.9561C29.7523 10.751 29.8389 10.514 29.8936 10.2451C29.9528 9.97624 29.9824 9.68685 29.9824 9.37695V9.2334C29.9824 8.93262 29.9528 8.65007 29.8936 8.38574C29.8389 8.11686 29.75 7.87988 29.627 7.6748C29.5085 7.46517 29.3512 7.30111 29.1553 7.18262C28.9593 7.06413 28.7223 7.00488 28.4443 7.00488C28.1663 7.00488 27.9294 7.06413 27.7334 7.18262C27.542 7.30111 27.3848 7.46517 27.2617 7.6748C27.1432 7.87988 27.0566 8.11686 27.002 8.38574C26.9473 8.65007 26.9199 8.93262 26.9199 9.2334Z" fill="#0038FF"/>
<path d="M2.54688 14H3.27344V19.1797L3.21094 20H2.54688V14ZM6.12891 17.8516V17.9336C6.12891 18.2409 6.09245 18.526 6.01953 18.7891C5.94661 19.0495 5.83984 19.276 5.69922 19.4688C5.55859 19.6615 5.38672 19.8112 5.18359 19.918C4.98047 20.0247 4.7474 20.0781 4.48438 20.0781C4.21615 20.0781 3.98047 20.0326 3.77734 19.9414C3.57682 19.8477 3.40755 19.7135 3.26953 19.5391C3.13151 19.3646 3.02083 19.1536 2.9375 18.9062C2.85677 18.6589 2.80078 18.3802 2.76953 18.0703V17.7109C2.80078 17.3984 2.85677 17.1185 2.9375 16.8711C3.02083 16.6237 3.13151 16.4128 3.26953 16.2383C3.40755 16.0612 3.57682 15.9271 3.77734 15.8359C3.97786 15.7422 4.21094 15.6953 4.47656 15.6953C4.74219 15.6953 4.97786 15.7474 5.18359 15.8516C5.38932 15.9531 5.5612 16.099 5.69922 16.2891C5.83984 16.4792 5.94661 16.707 6.01953 16.9727C6.09245 17.2357 6.12891 17.5286 6.12891 17.8516ZM5.40234 17.9336V17.8516C5.40234 17.6406 5.38281 17.4427 5.34375 17.2578C5.30469 17.0703 5.24219 16.9062 5.15625 16.7656C5.07031 16.6224 4.95703 16.5104 4.81641 16.4297C4.67578 16.3464 4.5026 16.3047 4.29688 16.3047C4.11458 16.3047 3.95573 16.3359 3.82031 16.3984C3.6875 16.4609 3.57422 16.5456 3.48047 16.6523C3.38672 16.7565 3.3099 16.8763 3.25 17.0117C3.19271 17.1445 3.14974 17.2826 3.12109 17.4258V18.3672C3.16276 18.5495 3.23047 18.7253 3.32422 18.8945C3.42057 19.0612 3.54818 19.1979 3.70703 19.3047C3.86849 19.4115 4.06771 19.4648 4.30469 19.4648C4.5 19.4648 4.66667 19.4258 4.80469 19.3477C4.94531 19.2669 5.05859 19.1562 5.14453 19.0156C5.23307 18.875 5.29818 18.7122 5.33984 18.5273C5.38151 18.3424 5.40234 18.1445 5.40234 17.9336ZM8.18359 19.5625L9.35938 15.7734H10.1328L8.4375 20.6523C8.39844 20.7565 8.34635 20.8685 8.28125 20.9883C8.21875 21.1107 8.13802 21.2266 8.03906 21.3359C7.9401 21.4453 7.82031 21.5339 7.67969 21.6016C7.54167 21.6719 7.3763 21.707 7.18359 21.707C7.1263 21.707 7.05339 21.6992 6.96484 21.6836C6.8763 21.668 6.8138 21.6549 6.77734 21.6445L6.77344 21.0586C6.79427 21.0612 6.82682 21.0638 6.87109 21.0664C6.91797 21.0716 6.95052 21.0742 6.96875 21.0742C7.13281 21.0742 7.27214 21.0521 7.38672 21.0078C7.5013 20.9661 7.59766 20.8945 7.67578 20.793C7.75651 20.694 7.82552 20.5573 7.88281 20.3828L8.18359 19.5625ZM7.32031 15.7734L8.41797 19.0547L8.60547 19.8164L8.08594 20.082L6.53125 15.7734H7.32031ZM13.6328 14.3125V20H12.8789V14.3125H13.6328ZM17.0664 14.3125L14.7031 16.9648L13.375 18.3438L13.25 17.5391L14.25 16.4375L16.1602 14.3125H17.0664ZM16.3398 20L14.2344 17.2266L14.6836 16.6289L17.2383 20H16.3398ZM17.4922 17.9336V17.8438C17.4922 17.5391 17.5365 17.2565 17.625 16.9961C17.7135 16.7331 17.8411 16.5052 18.0078 16.3125C18.1745 16.1172 18.3763 15.9661 18.6133 15.8594C18.8503 15.75 19.1159 15.6953 19.4102 15.6953C19.707 15.6953 19.974 15.75 20.2109 15.8594C20.4505 15.9661 20.6536 16.1172 20.8203 16.3125C20.9896 16.5052 21.1185 16.7331 21.207 16.9961C21.2956 17.2565 21.3398 17.5391 21.3398 17.8438V17.9336C21.3398 18.2383 21.2956 18.5208 21.207 18.7812C21.1185 19.0417 20.9896 19.2695 20.8203 19.4648C20.6536 19.6576 20.4518 19.8086 20.2148 19.918C19.9805 20.0247 19.7148 20.0781 19.418 20.0781C19.1211 20.0781 18.8542 20.0247 18.6172 19.918C18.3802 19.8086 18.1771 19.6576 18.0078 19.4648C17.8411 19.2695 17.7135 19.0417 17.625 18.7812C17.5365 18.5208 17.4922 18.2383 17.4922 17.9336ZM18.2148 17.8438V17.9336C18.2148 18.1445 18.2396 18.3438 18.2891 18.5312C18.3385 18.7161 18.4128 18.8802 18.5117 19.0234C18.6133 19.1667 18.7396 19.2799 18.8906 19.3633C19.0417 19.444 19.2174 19.4844 19.418 19.4844C19.6159 19.4844 19.7891 19.444 19.9375 19.3633C20.0885 19.2799 20.2135 19.1667 20.3125 19.0234C20.4115 18.8802 20.4857 18.7161 20.5352 18.5312C20.5872 18.3438 20.6133 18.1445 20.6133 17.9336V17.8438C20.6133 17.6354 20.5872 17.4388 20.5352 17.2539C20.4857 17.0664 20.4102 16.901 20.3086 16.7578C20.2096 16.612 20.0846 16.4974 19.9336 16.4141C19.7852 16.3307 19.6107 16.2891 19.4102 16.2891C19.2122 16.2891 19.0378 16.3307 18.8867 16.4141C18.7383 16.4974 18.6133 16.612 18.5117 16.7578C18.4128 16.901 18.3385 17.0664 18.2891 17.2539C18.2396 17.4388 18.2148 17.6354 18.2148 17.8438ZM24.707 18.8789C24.707 18.7747 24.6836 18.6784 24.6367 18.5898C24.5924 18.4987 24.5 18.4167 24.3594 18.3438C24.2214 18.2682 24.013 18.2031 23.7344 18.1484C23.5 18.099 23.2878 18.0404 23.0977 17.9727C22.9102 17.9049 22.75 17.8229 22.6172 17.7266C22.487 17.6302 22.3867 17.5169 22.3164 17.3867C22.2461 17.2565 22.2109 17.1042 22.2109 16.9297C22.2109 16.763 22.2474 16.6055 22.3203 16.457C22.3958 16.3086 22.5013 16.1771 22.6367 16.0625C22.7747 15.9479 22.9401 15.8581 23.1328 15.793C23.3255 15.7279 23.5404 15.6953 23.7773 15.6953C24.1159 15.6953 24.4049 15.7552 24.6445 15.875C24.8841 15.9948 25.0677 16.1549 25.1953 16.3555C25.3229 16.5534 25.3867 16.7734 25.3867 17.0156H24.6641C24.6641 16.8984 24.6289 16.7852 24.5586 16.6758C24.4909 16.5638 24.3906 16.4714 24.2578 16.3984C24.1276 16.3255 23.9674 16.2891 23.7773 16.2891C23.5768 16.2891 23.4141 16.3203 23.2891 16.3828C23.1667 16.4427 23.0768 16.5195 23.0195 16.6133C22.9648 16.707 22.9375 16.806 22.9375 16.9102C22.9375 16.9883 22.9505 17.0586 22.9766 17.1211C23.0052 17.181 23.0547 17.237 23.125 17.2891C23.1953 17.3385 23.2943 17.3854 23.4219 17.4297C23.5495 17.474 23.7122 17.5182 23.9102 17.5625C24.2565 17.6406 24.5417 17.7344 24.7656 17.8438C24.9896 17.9531 25.1562 18.0872 25.2656 18.2461C25.375 18.4049 25.4297 18.5977 25.4297 18.8242C25.4297 19.0091 25.3906 19.1784 25.3125 19.332C25.237 19.4857 25.1263 19.6185 24.9805 19.7305C24.8372 19.8398 24.6654 19.9258 24.4648 19.9883C24.2669 20.0482 24.0443 20.0781 23.7969 20.0781C23.4245 20.0781 23.1094 20.0117 22.8516 19.8789C22.5938 19.7461 22.3984 19.5742 22.2656 19.3633C22.1328 19.1523 22.0664 18.9297 22.0664 18.6953H22.793C22.8034 18.8932 22.8607 19.0508 22.9648 19.168C23.069 19.2826 23.1966 19.3646 23.3477 19.4141C23.4987 19.4609 23.6484 19.4844 23.7969 19.4844C23.9948 19.4844 24.1602 19.4583 24.293 19.4062C24.4284 19.3542 24.5312 19.2826 24.6016 19.1914C24.6719 19.1003 24.707 18.9961 24.707 18.8789ZM28.1484 15.7734V16.3281H25.8633V15.7734H28.1484ZM26.6367 14.7461H27.3594V18.9531C27.3594 19.0964 27.3815 19.2044 27.4258 19.2773C27.4701 19.3503 27.5273 19.3984 27.5977 19.4219C27.668 19.4453 27.7435 19.457 27.8242 19.457C27.8841 19.457 27.9466 19.4518 28.0117 19.4414C28.0794 19.4284 28.1302 19.418 28.1641 19.4102L28.168 20C28.1107 20.0182 28.0352 20.0352 27.9414 20.0508C27.8503 20.069 27.7396 20.0781 27.6094 20.0781C27.4323 20.0781 27.2695 20.043 27.1211 19.9727C26.9727 19.9023 26.8542 19.7852 26.7656 19.6211C26.6797 19.4544 26.6367 19.2305 26.6367 18.9492V14.7461ZM29.7812 15.7734V20H29.0547V15.7734H29.7812ZM29 14.6523C29 14.5352 29.0352 14.4362 29.1055 14.3555C29.1784 14.2747 29.2852 14.2344 29.4258 14.2344C29.5638 14.2344 29.6693 14.2747 29.7422 14.3555C29.8177 14.4362 29.8555 14.5352 29.8555 14.6523C29.8555 14.7643 29.8177 14.8607 29.7422 14.9414C29.6693 15.0195 29.5638 15.0586 29.4258 15.0586C29.2852 15.0586 29.1784 15.0195 29.1055 14.9414C29.0352 14.8607 29 14.7643 29 14.6523ZM33.4336 19.2773V17.1016C33.4336 16.9349 33.3997 16.7904 33.332 16.668C33.2669 16.543 33.168 16.4466 33.0352 16.3789C32.9023 16.3112 32.7383 16.2773 32.543 16.2773C32.3607 16.2773 32.2005 16.3086 32.0625 16.3711C31.9271 16.4336 31.8203 16.5156 31.7422 16.6172C31.6667 16.7188 31.6289 16.8281 31.6289 16.9453H30.9062C30.9062 16.7943 30.9453 16.6445 31.0234 16.4961C31.1016 16.3477 31.2135 16.2135 31.3594 16.0938C31.5078 15.9714 31.6849 15.875 31.8906 15.8047C32.099 15.7318 32.3307 15.6953 32.5859 15.6953C32.8932 15.6953 33.1641 15.7474 33.3984 15.8516C33.6354 15.9557 33.8203 16.1133 33.9531 16.3242C34.0885 16.5326 34.1562 16.7943 34.1562 17.1094V19.0781C34.1562 19.2188 34.168 19.3685 34.1914 19.5273C34.2174 19.6862 34.2552 19.8229 34.3047 19.9375V20H33.5508C33.5143 19.9167 33.4857 19.806 33.4648 19.668C33.444 19.5273 33.4336 19.3971 33.4336 19.2773ZM33.5586 17.4375L33.5664 17.9453H32.8359C32.6302 17.9453 32.4466 17.9622 32.2852 17.9961C32.1237 18.0273 31.9883 18.0755 31.8789 18.1406C31.7695 18.2057 31.6862 18.2878 31.6289 18.3867C31.5716 18.4831 31.543 18.5964 31.543 18.7266C31.543 18.8594 31.5729 18.9805 31.6328 19.0898C31.6927 19.1992 31.7826 19.2865 31.9023 19.3516C32.0247 19.4141 32.1745 19.4453 32.3516 19.4453C32.5729 19.4453 32.7682 19.3984 32.9375 19.3047C33.1068 19.2109 33.2409 19.0964 33.3398 18.9609C33.4414 18.8255 33.4961 18.694 33.5039 18.5664L33.8125 18.9141C33.7943 19.0234 33.7448 19.1445 33.6641 19.2773C33.5833 19.4102 33.4753 19.5378 33.3398 19.6602C33.207 19.7799 33.0482 19.8802 32.8633 19.9609C32.681 20.0391 32.4753 20.0781 32.2461 20.0781C31.9596 20.0781 31.7083 20.0221 31.4922 19.9102C31.2786 19.7982 31.112 19.6484 30.9922 19.4609C30.875 19.2708 30.8164 19.0586 30.8164 18.8242C30.8164 18.5977 30.8607 18.3984 30.9492 18.2266C31.0378 18.0521 31.1654 17.9076 31.332 17.793C31.4987 17.6758 31.6992 17.5872 31.9336 17.5273C32.168 17.4674 32.4297 17.4375 32.7188 17.4375H33.5586ZM37.0469 20.0781C36.7526 20.0781 36.4857 20.0286 36.2461 19.9297C36.0091 19.8281 35.8047 19.6862 35.6328 19.5039C35.4635 19.3216 35.3333 19.1055 35.2422 18.8555C35.151 18.6055 35.1055 18.332 35.1055 18.0352V17.8711C35.1055 17.5273 35.1562 17.2214 35.2578 16.9531C35.3594 16.6823 35.4974 16.4531 35.6719 16.2656C35.8464 16.0781 36.0443 15.9362 36.2656 15.8398C36.487 15.7435 36.7161 15.6953 36.9531 15.6953C37.2552 15.6953 37.5156 15.7474 37.7344 15.8516C37.9557 15.9557 38.1367 16.1016 38.2773 16.2891C38.418 16.474 38.5221 16.6927 38.5898 16.9453C38.6576 17.1953 38.6914 17.4688 38.6914 17.7656V18.0898H35.5352V17.5H37.9688V17.4453C37.9583 17.2578 37.9193 17.0755 37.8516 16.8984C37.7865 16.7214 37.6823 16.5755 37.5391 16.4609C37.3958 16.3464 37.2005 16.2891 36.9531 16.2891C36.7891 16.2891 36.638 16.3242 36.5 16.3945C36.362 16.4622 36.2435 16.5638 36.1445 16.6992C36.0456 16.8346 35.9688 17 35.9141 17.1953C35.8594 17.3906 35.832 17.6159 35.832 17.8711V18.0352C35.832 18.2357 35.8594 18.4245 35.9141 18.6016C35.9714 18.776 36.0534 18.9297 36.1602 19.0625C36.2695 19.1953 36.401 19.2995 36.5547 19.375C36.7109 19.4505 36.888 19.4883 37.0859 19.4883C37.3411 19.4883 37.5573 19.4362 37.7344 19.332C37.9115 19.2279 38.0664 19.0885 38.1992 18.9141L38.6367 19.2617C38.5456 19.3997 38.4297 19.5312 38.2891 19.6562C38.1484 19.7812 37.9753 19.8828 37.7695 19.9609C37.5664 20.0391 37.3255 20.0781 37.0469 20.0781ZM40.7656 19.3477L41.9219 15.7734H42.6602L41.1406 20H40.6562L40.7656 19.3477ZM39.8008 15.7734L40.9922 19.3672L41.0742 20H40.5898L39.0586 15.7734H39.8008Z" fill="white"/>
</svg>
